<svg width="21" height="20" viewBox="0 0 21 20" fill="none" xmlns="http://www.w3.org/2000/svg">
<path fill-rule="evenodd" clip-rule="evenodd" d="M18.2381 0H2.24651C1.14252 0 0.247559 0.89543 0.247559 2V18C0.247559 19.1046 1.14252 20 2.24651 20H10.2424V12.4706H7.2439V9.64706H10.2424V8.13082C10.2424 5.26024 11.7313 4 14.1653 4C15.3081 4 15.923 4.08142 16.2217 4.12097L16.2393 4.12329V6.82353H14.5791C13.546 6.82353 13.2408 7.35812 13.2408 8.44047V9.64706H16.2133L15.8024 12.4706H13.2408V20H18.2381C19.3421 20 20.2371 19.1046 20.2371 18V2C20.2371 0.89543 19.3421 0 18.2381 0Z" fill="white" fill-opacity="0.8"/>
</svg>
