<svg width="24" height="24" viewBox="0 0 24 24" fill="none" xmlns="http://www.w3.org/2000/svg">
<path fill-rule="evenodd" clip-rule="evenodd" d="M6.32532 0.333984H17.2151C21.1809 0.333984 23.4197 2.58448 23.4314 6.55232V17.449C23.4314 21.4157 21.1809 23.6673 17.2151 23.6673H6.32532C2.35956 23.6673 0.110229 21.4157 0.110229 17.449V6.55232C0.110229 2.58448 2.35956 0.333984 6.32532 0.333984ZM11.8279 18.8373C12.3305 18.8373 12.7491 18.464 12.7958 17.9623V6.07398C12.8424 5.71231 12.6687 5.34947 12.3538 5.15231C12.0262 4.95397 11.6297 4.95397 11.316 5.15231C11 5.34947 10.8263 5.71231 10.8601 6.07398V17.9623C10.9196 18.464 11.3382 18.8373 11.8279 18.8373ZM17.193 18.8373C17.6827 18.8373 18.1013 18.464 18.1608 17.9623V14.1357C18.1946 13.7612 18.0209 13.4123 17.7049 13.214C17.3912 13.0157 16.9947 13.0157 16.6683 13.214C16.3522 13.4123 16.1785 13.7612 16.2251 14.1357V17.9623C16.2718 18.464 16.6904 18.8373 17.193 18.8373ZM7.36194 17.9624C7.3153 18.464 6.89669 18.8374 6.39411 18.8374C5.89271 18.8374 5.47293 18.464 5.42745 17.9624V9.90069C5.39247 9.53785 5.56621 9.17735 5.88221 8.97902C6.19588 8.78069 6.59351 8.78069 6.90835 8.97902C7.22202 9.17735 7.39809 9.53785 7.36194 9.90069V17.9624Z" fill="#FEAD86"/>
</svg>
