<svg width="27" height="20" viewBox="0 0 27 20" fill="none" xmlns="http://www.w3.org/2000/svg">
<path fill-rule="evenodd" clip-rule="evenodd" d="M18.2028 5.60483C18.2028 8.34613 16.0186 10.5442 13.2945 10.5442C10.5705 10.5442 8.38626 8.34613 8.38626 5.60483C8.38626 2.86248 10.5705 0.666504 13.2945 0.666504C16.0186 0.666504 18.2028 2.86248 18.2028 5.60483ZM13.2945 19.3332C9.29354 19.3332 5.87728 18.6985 5.87728 16.16C5.87728 13.6205 9.27162 12.9627 13.2945 12.9627C17.2954 12.9627 20.7117 13.5973 20.7117 16.1369C20.7117 18.6754 17.3174 19.3332 13.2945 19.3332ZM20.3003 5.69396C20.3003 7.0914 19.8837 8.39323 19.1528 9.47546C19.0777 9.58683 19.1445 9.73708 19.2771 9.7602C19.4598 9.79172 19.6488 9.80958 19.8409 9.81483C21.7568 9.86527 23.4764 8.62438 23.9515 6.75622C24.6552 3.9813 22.5889 1.49008 19.9578 1.49008C19.6718 1.49008 19.3982 1.52055 19.132 1.57518C19.0954 1.58359 19.0568 1.6004 19.0359 1.63297C19.0108 1.6729 19.0296 1.72648 19.0547 1.76116C19.8451 2.87596 20.3003 4.23557 20.3003 5.69396ZM23.4733 11.7645C24.7606 12.0177 25.6074 12.5347 25.9582 13.2859C26.2547 13.9027 26.2547 14.6182 25.9582 15.2339C25.4216 16.3992 23.6915 16.7732 23.0191 16.8699C22.8802 16.8909 22.7685 16.7701 22.7831 16.6303C23.1266 13.4015 20.3943 11.8706 19.6874 11.5186C19.6571 11.5029 19.6509 11.4787 19.654 11.464C19.6561 11.4535 19.6686 11.4367 19.6916 11.4335C21.2212 11.4051 22.8656 11.6153 23.4733 11.7645ZM6.86733 9.81466C7.05944 9.80941 7.24738 9.7926 7.43114 9.76003C7.56374 9.73691 7.63056 9.58666 7.55539 9.47528C6.82452 8.39305 6.40793 7.09123 6.40793 5.69379C6.40793 4.2354 6.86316 2.87579 7.65353 1.76099C7.67859 1.72631 7.69634 1.67273 7.67233 1.6328C7.65144 1.60128 7.61177 1.58342 7.57627 1.57501C7.30898 1.52037 7.03543 1.4899 6.74935 1.4899C4.11824 1.4899 2.05199 3.98113 2.75675 6.75605C3.23181 8.62421 4.95143 9.8651 6.86733 9.81466ZM7.05369 11.4634C7.05682 11.4791 7.05056 11.5023 7.02132 11.5191C6.31343 11.871 3.58105 13.4019 3.92455 16.6297C3.93917 16.7705 3.8285 16.8903 3.68963 16.8703C3.01724 16.7737 1.28718 16.3996 0.750518 15.2344C0.452952 14.6176 0.452952 13.9031 0.750518 13.2864C1.10133 12.5351 1.94705 12.0181 3.23441 11.7639C3.84311 11.6157 5.48651 11.4056 7.01715 11.434C7.04012 11.4371 7.0516 11.4539 7.05369 11.4634Z" fill="#FFCF00"/>
</svg>
