<svg width="25" height="24" viewBox="0 0 25 24" fill="none" xmlns="http://www.w3.org/2000/svg">
<path fill-rule="evenodd" clip-rule="evenodd" d="M22.3564 8.67026L23.1963 9.51026C23.8612 10.1636 24.2228 11.0503 24.2228 11.9836C24.2345 12.9169 23.8729 13.8048 23.2196 14.4686C23.2119 14.4771 23.2041 14.4847 23.1963 14.4922C23.1924 14.4959 23.1885 14.4997 23.1846 14.5036L22.3564 15.3319C22.0298 15.6586 21.8432 16.1019 21.8432 16.5698V17.7703C21.8432 19.7069 20.2684 21.2831 18.3321 21.2831H17.1306C16.664 21.2831 16.2207 21.4686 15.8941 21.7953L15.0542 22.6353C14.366 23.3248 13.4678 23.6619 12.5696 23.6619C11.6714 23.6619 10.7732 23.3248 10.085 22.6481L9.23349 21.7953C8.90687 21.4686 8.46361 21.2831 7.99701 21.2831H6.79554C4.85917 21.2831 3.28442 19.7069 3.28442 17.7703V16.5698C3.28442 16.1019 3.09778 15.6586 2.77117 15.3203L1.9313 14.4919C0.56651 13.1281 0.554845 10.8986 1.91963 9.52309L2.77117 8.67026C3.09778 8.34359 3.28442 7.90026 3.28442 7.42193V6.23193C3.28442 4.29526 4.85917 2.72143 6.79554 2.72143H7.99701C8.46361 2.72143 8.90687 2.53359 9.23349 2.20693L10.0734 1.36693C11.4381 -0.0085744 13.6661 -0.00857431 15.0426 1.35643L15.8941 2.20693C16.2207 2.53359 16.664 2.72143 17.1306 2.72143H18.3321C20.2684 2.72143 21.8432 4.29526 21.8432 6.23193V7.43476C21.8432 7.90026 22.0298 8.34359 22.3564 8.67026ZM9.56013 16.0203C9.84009 16.0203 10.0967 15.9153 10.2834 15.7169L16.2791 9.72145C16.6757 9.32478 16.6757 8.67028 16.2791 8.27362C15.8825 7.87812 15.2409 7.87812 14.8443 8.27362L8.84858 14.2703C8.45197 14.6669 8.45197 15.3203 8.84858 15.7169C9.03521 15.9153 9.29184 16.0203 9.56013 16.0203ZM14.541 14.9936C14.541 15.5652 14.9959 16.0202 15.5675 16.0202C16.1274 16.0202 16.5823 15.5652 16.5823 14.9936C16.5823 14.4347 16.1274 13.9786 15.5675 13.9786C14.9959 13.9786 14.541 14.4347 14.541 14.9936ZM9.57173 7.98189C10.1316 7.98189 10.5866 8.43689 10.5866 8.99689C10.5866 9.56973 10.1316 10.0236 9.57173 10.0236C9.01182 10.0236 8.54523 9.56973 8.54523 8.99689C8.54523 8.43689 9.01182 7.98189 9.57173 7.98189Z" fill="#51A690"/>
</svg>
