<svg width="24" height="24" viewBox="0 0 24 24" fill="none" xmlns="http://www.w3.org/2000/svg">
<path fill-rule="evenodd" clip-rule="evenodd" d="M0.109741 10.4484C0.109741 4.8621 4.5878 0.333496 10.1118 0.333496C12.7645 0.333496 15.3085 1.39917 17.1843 3.29609C19.06 5.193 20.1138 7.76577 20.1138 10.4484C20.1138 16.0347 15.6357 20.5633 10.1118 20.5633C4.5878 20.5633 0.109741 16.0347 0.109741 10.4484ZM19.9483 18.5968L22.9272 21.0026H22.9789C23.5816 21.6121 23.5816 22.6002 22.9789 23.2097C22.3762 23.8192 21.3991 23.8192 20.7965 23.2097L18.3244 20.375C18.0907 20.1395 17.9593 19.8196 17.9593 19.4859C17.9593 19.1522 18.0907 18.8323 18.3244 18.5968C18.7751 18.1489 19.4976 18.1489 19.9483 18.5968Z" fill="#00A198"/>
</svg>
