<svg width="25" height="24" viewBox="0 0 25 24" fill="none" xmlns="http://www.w3.org/2000/svg">
<path fill-rule="evenodd" clip-rule="evenodd" d="M12.9432 0.578103C13.1294 0.410872 13.3757 0.323214 13.6279 0.334458C18.9577 0.494093 23.4121 4.36526 24.2194 9.53923C24.2245 9.57012 24.2245 9.60163 24.2194 9.63252C24.2368 9.87733 24.1541 10.1188 23.9896 10.3037C23.8251 10.4885 23.5924 10.6013 23.3429 10.6173L14.3882 11.2081C14.092 11.2344 13.7984 11.1369 13.5793 10.9396C13.3602 10.7423 13.236 10.4634 13.2372 10.1715L12.6352 1.37103V1.22591C12.6462 0.978401 12.757 0.745333 12.9432 0.578103ZM12.329 13.5093L20.0905 13.0118L20.1433 13.0325C20.4766 13.0379 20.794 13.1732 21.0257 13.4084C21.2574 13.6436 21.3844 13.9596 21.3788 14.2867C21.0729 18.7459 17.8054 22.4716 13.3587 23.4314C8.91209 24.3913 4.35372 22.3548 2.1704 18.433C1.52841 17.3035 1.12272 16.0595 0.977135 14.7739C0.920671 14.393 0.895949 14.0082 0.903216 13.6233C0.917932 8.88175 4.29204 4.78908 9.01318 3.78626C9.58471 3.67923 10.1577 3.96473 10.4071 4.48076C10.4692 4.5744 10.5188 4.67541 10.5549 4.78137C10.6434 6.14827 10.7352 7.50222 10.8266 8.85046C10.8988 9.91514 10.9708 10.9763 11.0407 12.0374C11.0371 12.2874 11.0763 12.5362 11.1568 12.7733C11.3463 13.24 11.8179 13.5361 12.329 13.5093Z" fill="#75578E"/>
</svg>
