<svg width="23" height="24" viewBox="0 0 23 24" fill="none" xmlns="http://www.w3.org/2000/svg">
<path fill-rule="evenodd" clip-rule="evenodd" d="M16.506 5.5485H16.7448C19.8838 5.5485 22.4314 8.1735 22.4314 11.3935V17.8335C22.4314 21.0535 19.8838 23.6668 16.7448 23.6668H5.96299C2.82397 23.6668 0.276367 21.0535 0.276367 17.8335V11.3935C0.276367 8.1735 2.82397 5.5485 5.96299 5.5485H6.20182C6.22457 4.1485 6.75911 2.84183 7.72584 1.86183C8.70394 0.870163 9.95499 0.368496 11.3653 0.333496C14.1858 0.333496 16.4719 2.66683 16.506 5.5485ZM8.92 3.11016C8.28309 3.7635 7.93052 4.62683 7.90778 5.5485H14.8C14.7658 3.63516 13.2418 2.0835 11.3652 2.0835C10.4895 2.0835 9.57964 2.44516 8.92 3.11016ZM15.6761 10.0402C16.1541 10.0402 16.5296 9.64352 16.5296 9.16519V7.81186C16.5296 7.33352 16.1541 6.93686 15.6761 6.93686C15.2096 6.93686 14.8227 7.33352 14.8227 7.81186V9.16519C14.8227 9.64352 15.2096 10.0402 15.6761 10.0402ZM7.78357 9.16519C7.78357 9.64352 7.40805 10.0402 6.93013 10.0402C6.46358 10.0402 6.07669 9.64352 6.07669 9.16519V7.81186C6.07669 7.33352 6.46358 6.93686 6.93013 6.93686C7.40805 6.93686 7.78357 7.33352 7.78357 7.81186V9.16519Z" fill="#0985B9"/>
</svg>
