<svg width="21" height="20" viewBox="0 0 21 20" fill="none" xmlns="http://www.w3.org/2000/svg">
<path fill-rule="evenodd" clip-rule="evenodd" d="M6.22345 0H14.2193C17.5313 0 20.2162 2.68629 20.2162 6V14C20.2162 17.3137 17.5313 20 14.2193 20H6.22345C2.91146 20 0.226562 17.3137 0.226562 14V6C0.226562 2.68629 2.91146 0 6.22345 0ZM16.2182 3C16.7179 3 17.2177 3.5 17.2177 4C17.2177 4.5 16.7179 5 16.2182 5C15.7185 5 15.2188 4.5 15.2188 4C15.2188 3.5 15.7185 3 16.2182 3ZM15.2188 10C15.2188 7.2425 12.9774 5 10.2214 5C7.46532 5 5.224 7.2425 5.224 10C5.224 12.7575 7.46532 15 10.2214 15C12.9774 15 15.2188 12.7575 15.2188 10ZM10.2214 7C8.56536 7 7.2229 8.34315 7.2229 10C7.2229 11.6569 8.56536 13 10.2214 13C11.8774 13 13.2198 11.6569 13.2198 10C13.2198 8.34315 11.8774 7 10.2214 7Z" fill="white" fill-opacity="0.8"/>
</svg>
