<svg width="21" height="20" viewBox="0 0 21 20" fill="none" xmlns="http://www.w3.org/2000/svg">
<path fill-rule="evenodd" clip-rule="evenodd" d="M18.1962 0H2.20453C1.10053 0 0.205566 0.89543 0.205566 2V18C0.205566 19.1046 1.10053 20 2.20453 20H18.1962C19.3002 20 20.1952 19.1046 20.1952 18V2C20.1952 0.89543 19.3002 0 18.1962 0ZM15.5479 6.23936C16.1285 6.1722 16.6818 6.02331 17.1968 5.80205C16.812 6.35858 16.325 6.84744 15.7637 7.23946C15.769 7.35868 15.7717 7.47842 15.7717 7.59868C15.7717 11.2685 12.885 15.5 7.60463 15.5C5.98316 15.5 4.4747 15.0403 3.2041 14.2526C3.42905 14.2786 3.65777 14.2917 3.88918 14.2917C5.23458 14.2917 6.47234 13.8476 7.45448 13.1026C6.19842 13.0802 5.13825 12.2769 4.77284 11.1737C4.94774 11.2055 5.12802 11.2232 5.31261 11.2232C5.57469 11.2232 5.8287 11.1893 6.06926 11.1258C4.75561 10.8712 3.76648 9.74881 3.76648 8.40302V8.36814C4.15341 8.57587 4.59632 8.70081 5.06667 8.71539C4.29656 8.21769 3.79016 7.36753 3.79016 6.4044C3.79016 5.89472 3.93169 5.41784 4.17817 5.0076C5.5946 6.68813 7.70957 7.79391 10.0952 7.90948C10.0468 7.70697 10.021 7.49456 10.021 7.27694C10.021 5.74374 11.3061 4.5 12.8915 4.5C13.717 4.5 14.4629 4.83736 14.9866 5.37723C15.641 5.25228 16.2555 5.02113 16.8098 4.70304C16.5957 5.35172 16.1409 5.89576 15.5479 6.23936Z" fill="white" fill-opacity="0.8"/>
</svg>
